<mxfile host="65bd71144e">
    <diagram id="pIaEtrtLPv3HG8r1JEND" name="Page-1">
        <mxGraphModel dx="1432" dy="948" grid="1" gridSize="10" guides="1" tooltips="1" connect="1" arrows="1" fold="1" page="1" pageScale="1" pageWidth="850" pageHeight="1100" math="0" shadow="0">
            <root>
                <mxCell id="0"/>
                <mxCell id="1" parent="0"/>
                <mxCell id="Y9fD_DwAn8kljFGfUehZ-1" value="" style="rounded=0;whiteSpace=wrap;html=1;" vertex="1" parent="1">
                    <mxGeometry x="30" y="20" width="740" height="460" as="geometry"/>
                </mxCell>
                <mxCell id="Y9fD_DwAn8kljFGfUehZ-2" value="" style="rounded=1;whiteSpace=wrap;html=1;strokeWidth=2;fillWeight=4;hachureGap=8;hachureAngle=45;fillColor=#1ba1e2;sketch=1;" vertex="1" parent="1">
                    <mxGeometry x="41" y="40" width="249" height="30" as="geometry"/>
                </mxCell>
                <mxCell id="Y9fD_DwAn8kljFGfUehZ-3" value="" style="rounded=1;whiteSpace=wrap;html=1;strokeWidth=2;fillWeight=4;hachureGap=8;hachureAngle=45;fillColor=#1ba1e2;sketch=1;" vertex="1" parent="1">
                    <mxGeometry x="42" y="120" width="179" height="21" as="geometry"/>
                </mxCell>
                <mxCell id="Y9fD_DwAn8kljFGfUehZ-4" value="" style="rounded=1;whiteSpace=wrap;html=1;strokeWidth=2;fillWeight=4;hachureGap=8;hachureAngle=45;fillColor=#1ba1e2;sketch=1;" vertex="1" parent="1">
                    <mxGeometry x="41" y="89" width="179" height="21" as="geometry"/>
                </mxCell>
                <mxCell id="Y9fD_DwAn8kljFGfUehZ-5" value="" style="rounded=1;whiteSpace=wrap;html=1;strokeWidth=2;fillWeight=4;hachureGap=8;hachureAngle=45;fillColor=#1ba1e2;sketch=1;" vertex="1" parent="1">
                    <mxGeometry x="42" y="203" width="179" height="21" as="geometry"/>
                </mxCell>
                <mxCell id="Y9fD_DwAn8kljFGfUehZ-6" value="Readonly input here..." style="html=1;shadow=0;dashed=0;shape=mxgraph.bootstrap.rrect;rSize=5;strokeColor=#CED4DA;strokeWidth=1;fillColor=#E9ECEF;fontColor=#505050;whiteSpace=wrap;align=left;verticalAlign=middle;spacingLeft=10;fontSize=14;" vertex="1" parent="1">
                    <mxGeometry x="41" y="244" width="159" height="20" as="geometry"/>
                </mxCell>
                <mxCell id="Y9fD_DwAn8kljFGfUehZ-7" value="Readonly input here..." style="html=1;shadow=0;dashed=0;shape=mxgraph.bootstrap.rrect;rSize=5;strokeColor=#CED4DA;strokeWidth=1;fillColor=#E9ECEF;fontColor=#505050;whiteSpace=wrap;align=left;verticalAlign=middle;spacingLeft=10;fontSize=14;" vertex="1" parent="1">
                    <mxGeometry x="42" y="274" width="159" height="20" as="geometry"/>
                </mxCell>
                <mxCell id="Y9fD_DwAn8kljFGfUehZ-8" value="Readonly input here..." style="html=1;shadow=0;dashed=0;shape=mxgraph.bootstrap.rrect;rSize=5;strokeColor=#CED4DA;strokeWidth=1;fillColor=#E9ECEF;fontColor=#505050;whiteSpace=wrap;align=left;verticalAlign=middle;spacingLeft=10;fontSize=14;" vertex="1" parent="1">
                    <mxGeometry x="41" y="304" width="159" height="20" as="geometry"/>
                </mxCell>
                <mxCell id="Y9fD_DwAn8kljFGfUehZ-9" value="Button" style="labelPosition=center;verticalLabelPosition=middle;align=center;html=1;shape=mxgraph.basic.shaded_button;dx=10;fillColor=#E6E6E6;strokeColor=none;" vertex="1" parent="1">
                    <mxGeometry x="41" y="354" width="89" height="50" as="geometry"/>
                </mxCell>
                <mxCell id="Y9fD_DwAn8kljFGfUehZ-11" value="" style="aspect=fixed;html=1;points=[];align=center;image;fontSize=12;image=img/lib/azure2/general/Image.svg;fillColor=#BA6D07;" vertex="1" parent="1">
                    <mxGeometry x="430" y="163.5" width="305.45" height="210" as="geometry"/>
                </mxCell>
            </root>
        </mxGraphModel>
    </diagram>
    <diagram id="PPi1ie2u7Sczy5yxZxTI" name="Page-2">
        <mxGraphModel dx="1074" dy="711" grid="1" gridSize="10" guides="1" tooltips="1" connect="1" arrows="1" fold="1" page="1" pageScale="1" pageWidth="827" pageHeight="1169" math="0" shadow="0">
            <root>
                <mxCell id="sMnJk2cxZbAE7Ro5d_Qd-0"/>
                <mxCell id="sMnJk2cxZbAE7Ro5d_Qd-1" parent="sMnJk2cxZbAE7Ro5d_Qd-0"/>
                <mxCell id="nLmml9gUSQOZoyKcWHVs-12" value="" style="rounded=0;whiteSpace=wrap;html=1;" vertex="1" parent="sMnJk2cxZbAE7Ro5d_Qd-1">
                    <mxGeometry x="30" y="20" width="740" height="460" as="geometry"/>
                </mxCell>
                <mxCell id="nLmml9gUSQOZoyKcWHVs-1" value="" style="rounded=1;whiteSpace=wrap;html=1;strokeWidth=2;fillWeight=4;hachureGap=8;hachureAngle=45;fillColor=#1ba1e2;sketch=1;" vertex="1" parent="sMnJk2cxZbAE7Ro5d_Qd-1">
                    <mxGeometry x="41" y="40" width="249" height="30" as="geometry"/>
                </mxCell>
                <mxCell id="nLmml9gUSQOZoyKcWHVs-2" value="" style="rounded=1;whiteSpace=wrap;html=1;strokeWidth=2;fillWeight=4;hachureGap=8;hachureAngle=45;fillColor=#1ba1e2;sketch=1;" vertex="1" parent="sMnJk2cxZbAE7Ro5d_Qd-1">
                    <mxGeometry x="42" y="120" width="179" height="21" as="geometry"/>
                </mxCell>
                <mxCell id="nLmml9gUSQOZoyKcWHVs-3" value="" style="rounded=1;whiteSpace=wrap;html=1;strokeWidth=2;fillWeight=4;hachureGap=8;hachureAngle=45;fillColor=#1ba1e2;sketch=1;" vertex="1" parent="sMnJk2cxZbAE7Ro5d_Qd-1">
                    <mxGeometry x="41" y="89" width="179" height="21" as="geometry"/>
                </mxCell>
                <mxCell id="nLmml9gUSQOZoyKcWHVs-4" value="" style="rounded=1;whiteSpace=wrap;html=1;strokeWidth=2;fillWeight=4;hachureGap=8;hachureAngle=45;fillColor=#1ba1e2;sketch=1;" vertex="1" parent="sMnJk2cxZbAE7Ro5d_Qd-1">
                    <mxGeometry x="42" y="203" width="179" height="21" as="geometry"/>
                </mxCell>
                <mxCell id="nLmml9gUSQOZoyKcWHVs-6" value="Readonly input here..." style="html=1;shadow=0;dashed=0;shape=mxgraph.bootstrap.rrect;rSize=5;strokeColor=#CED4DA;strokeWidth=1;fillColor=#E9ECEF;fontColor=#505050;whiteSpace=wrap;align=left;verticalAlign=middle;spacingLeft=10;fontSize=14;" vertex="1" parent="sMnJk2cxZbAE7Ro5d_Qd-1">
                    <mxGeometry x="41" y="244" width="159" height="20" as="geometry"/>
                </mxCell>
                <mxCell id="nLmml9gUSQOZoyKcWHVs-7" value="Readonly input here..." style="html=1;shadow=0;dashed=0;shape=mxgraph.bootstrap.rrect;rSize=5;strokeColor=#CED4DA;strokeWidth=1;fillColor=#E9ECEF;fontColor=#505050;whiteSpace=wrap;align=left;verticalAlign=middle;spacingLeft=10;fontSize=14;" vertex="1" parent="sMnJk2cxZbAE7Ro5d_Qd-1">
                    <mxGeometry x="42" y="274" width="159" height="20" as="geometry"/>
                </mxCell>
                <mxCell id="nLmml9gUSQOZoyKcWHVs-8" value="Readonly input here..." style="html=1;shadow=0;dashed=0;shape=mxgraph.bootstrap.rrect;rSize=5;strokeColor=#CED4DA;strokeWidth=1;fillColor=#E9ECEF;fontColor=#505050;whiteSpace=wrap;align=left;verticalAlign=middle;spacingLeft=10;fontSize=14;" vertex="1" parent="sMnJk2cxZbAE7Ro5d_Qd-1">
                    <mxGeometry x="41" y="304" width="159" height="20" as="geometry"/>
                </mxCell>
                <mxCell id="nLmml9gUSQOZoyKcWHVs-9" value="Button" style="labelPosition=center;verticalLabelPosition=middle;align=center;html=1;shape=mxgraph.basic.shaded_button;dx=10;fillColor=#E6E6E6;strokeColor=none;" vertex="1" parent="sMnJk2cxZbAE7Ro5d_Qd-1">
                    <mxGeometry x="41" y="354" width="89" height="50" as="geometry"/>
                </mxCell>
                <mxCell id="nLmml9gUSQOZoyKcWHVs-10" value="" style="rounded=1;whiteSpace=wrap;html=1;strokeWidth=2;fillWeight=4;hachureGap=8;hachureAngle=45;fillColor=#1ba1e2;sketch=1;" vertex="1" parent="sMnJk2cxZbAE7Ro5d_Qd-1">
                    <mxGeometry x="41" y="425" width="179" height="21" as="geometry"/>
                </mxCell>
                <mxCell id="nLmml9gUSQOZoyKcWHVs-11" value="" style="aspect=fixed;html=1;points=[];align=center;image;fontSize=12;image=img/lib/azure2/general/Image.svg;fillColor=#BA6D07;" vertex="1" parent="sMnJk2cxZbAE7Ro5d_Qd-1">
                    <mxGeometry x="430" y="163.5" width="305.45" height="210" as="geometry"/>
                </mxCell>
            </root>
        </mxGraphModel>
    </diagram>
</mxfile>